STARTFONT 2.1
COMMENT Created by fdbbdf
FONT bits1
SIZE 1 78 78
FONTBOUNDINGBOX 6 1 0 -1
STARTPROPERTIES 4
Ownership "  "
FONT_ASCENT 0
FONT_DESCENT 1
DEFAULT_CHAR 32
ENDPROPERTIES
CHARS 127
STARTCHAR ch-1
ENCODING -1 1
SWIDTH 0 0
DWIDTH 0 0
BBX 6 1 0 -1
BITMAP
0000
ENDCHAR
STARTCHAR ch-2
ENCODING -1 2
SWIDTH 0 0
DWIDTH 1 0
BBX 6 1 0 -1
BITMAP
0000
ENDCHAR
STARTCHAR ch-3
ENCODING -1 3
SWIDTH 0 0
DWIDTH 1 0
BBX 6 1 0 -1
BITMAP
8000
ENDCHAR
STARTCHAR ch-4
ENCODING -1 4
SWIDTH 0 0
DWIDTH 2 0
BBX 6 1 0 -1
BITMAP
0000
ENDCHAR
STARTCHAR ch-5
ENCODING -1 5
SWIDTH 0 0
DWIDTH 2 0
BBX 6 1 0 -1
BITMAP
4000
ENDCHAR
STARTCHAR ch-6
ENCODING -1 6
SWIDTH 0 0
DWIDTH 2 0
BBX 6 1 0 -1
BITMAP
8000
ENDCHAR
STARTCHAR ch-7
ENCODING -1 7
SWIDTH 0 0
DWIDTH 2 0
BBX 6 1 0 -1
BITMAP
c000
ENDCHAR
STARTCHAR ch-8
ENCODING -1 8
SWIDTH 0 0
DWIDTH 3 0
BBX 6 1 0 -1
BITMAP
0000
ENDCHAR
STARTCHAR ch-9
ENCODING -1 9
SWIDTH 0 0
DWIDTH 3 0
BBX 6 1 0 -1
BITMAP
2000
ENDCHAR
STARTCHAR ch-10
ENCODING -1 10
SWIDTH 0 0
DWIDTH 3 0
BBX 6 1 0 -1
BITMAP
4000
ENDCHAR
STARTCHAR ch-11
ENCODING -1 11
SWIDTH 0 0
DWIDTH 3 0
BBX 6 1 0 -1
BITMAP
6000
ENDCHAR
STARTCHAR ch-12
ENCODING -1 12
SWIDTH 0 0
DWIDTH 3 0
BBX 6 1 0 -1
BITMAP
8000
ENDCHAR
STARTCHAR ch-13
ENCODING -1 13
SWIDTH 0 0
DWIDTH 3 0
BBX 6 1 0 -1
BITMAP
a000
ENDCHAR
STARTCHAR ch-14
ENCODING -1 14
SWIDTH 0 0
DWIDTH 3 0
BBX 6 1 0 -1
BITMAP
c000
ENDCHAR
STARTCHAR ch-15
ENCODING -1 15
SWIDTH 0 0
DWIDTH 3 0
BBX 6 1 0 -1
BITMAP
e000
ENDCHAR
STARTCHAR ch-16
ENCODING -1 16
SWIDTH 0 0
DWIDTH 4 0
BBX 6 1 0 -1
BITMAP
0000
ENDCHAR
STARTCHAR ch-17
ENCODING -1 17
SWIDTH 0 0
DWIDTH 4 0
BBX 6 1 0 -1
BITMAP
1000
ENDCHAR
STARTCHAR ch-18
ENCODING -1 18
SWIDTH 0 0
DWIDTH 4 0
BBX 6 1 0 -1
BITMAP
2000
ENDCHAR
STARTCHAR ch-19
ENCODING -1 19
SWIDTH 0 0
DWIDTH 4 0
BBX 6 1 0 -1
BITMAP
3000
ENDCHAR
STARTCHAR ch-20
ENCODING -1 20
SWIDTH 0 0
DWIDTH 4 0
BBX 6 1 0 -1
BITMAP
4000
ENDCHAR
STARTCHAR ch-21
ENCODING -1 21
SWIDTH 0 0
DWIDTH 4 0
BBX 6 1 0 -1
BITMAP
5000
ENDCHAR
STARTCHAR ch-22
ENCODING -1 22
SWIDTH 0 0
DWIDTH 4 0
BBX 6 1 0 -1
BITMAP
6000
ENDCHAR
STARTCHAR ch-23
ENCODING -1 23
SWIDTH 0 0
DWIDTH 4 0
BBX 6 1 0 -1
BITMAP
7000
ENDCHAR
STARTCHAR ch-24
ENCODING -1 24
SWIDTH 0 0
DWIDTH 4 0
BBX 6 1 0 -1
BITMAP
8000
ENDCHAR
STARTCHAR ch-25
ENCODING -1 25
SWIDTH 0 0
DWIDTH 4 0
BBX 6 1 0 -1
BITMAP
9000
ENDCHAR
STARTCHAR ch-26
ENCODING -1 26
SWIDTH 0 0
DWIDTH 4 0
BBX 6 1 0 -1
BITMAP
a000
ENDCHAR
STARTCHAR ch-27
ENCODING -1 27
SWIDTH 0 0
DWIDTH 4 0
BBX 6 1 0 -1
BITMAP
b000
ENDCHAR
STARTCHAR ch-28
ENCODING -1 28
SWIDTH 0 0
DWIDTH 4 0
BBX 6 1 0 -1
BITMAP
c000
ENDCHAR
STARTCHAR ch-29
ENCODING -1 29
SWIDTH 0 0
DWIDTH 4 0
BBX 6 1 0 -1
BITMAP
d000
ENDCHAR
STARTCHAR ch-30
ENCODING -1 30
SWIDTH 0 0
DWIDTH 4 0
BBX 6 1 0 -1
BITMAP
e000
ENDCHAR
STARTCHAR ch-31
ENCODING -1 31
SWIDTH 0 0
DWIDTH 4 0
BBX 6 1 0 -1
BITMAP
f000
ENDCHAR
STARTCHAR sp
ENCODING -1 32
SWIDTH 0 0
DWIDTH 5 0
BBX 6 1 0 -1
BITMAP
0000
ENDCHAR
STARTCHAR !
ENCODING -1 33
SWIDTH 0 0
DWIDTH 5 0
BBX 6 1 0 -1
BITMAP
0800
ENDCHAR
STARTCHAR "
ENCODING -1 34
SWIDTH 0 0
DWIDTH 5 0
BBX 6 1 0 -1
BITMAP
1000
ENDCHAR
STARTCHAR #
ENCODING -1 35
SWIDTH 0 0
DWIDTH 5 0
BBX 6 1 0 -1
BITMAP
1800
ENDCHAR
STARTCHAR $
ENCODING -1 36
SWIDTH 0 0
DWIDTH 5 0
BBX 6 1 0 -1
BITMAP
2000
ENDCHAR
STARTCHAR %
ENCODING -1 37
SWIDTH 0 0
DWIDTH 5 0
BBX 6 1 0 -1
BITMAP
2800
ENDCHAR
STARTCHAR &
ENCODING -1 38
SWIDTH 0 0
DWIDTH 5 0
BBX 6 1 0 -1
BITMAP
3000
ENDCHAR
STARTCHAR '
ENCODING -1 39
SWIDTH 0 0
DWIDTH 5 0
BBX 6 1 0 -1
BITMAP
3800
ENDCHAR
STARTCHAR (
ENCODING -1 40
SWIDTH 0 0
DWIDTH 5 0
BBX 6 1 0 -1
BITMAP
4000
ENDCHAR
STARTCHAR )
ENCODING -1 41
SWIDTH 0 0
DWIDTH 5 0
BBX 6 1 0 -1
BITMAP
4800
ENDCHAR
STARTCHAR *
ENCODING -1 42
SWIDTH 0 0
DWIDTH 5 0
BBX 6 1 0 -1
BITMAP
5000
ENDCHAR
STARTCHAR +
ENCODING -1 43
SWIDTH 0 0
DWIDTH 5 0
BBX 6 1 0 -1
BITMAP
5800
ENDCHAR
STARTCHAR ,
ENCODING -1 44
SWIDTH 0 0
DWIDTH 5 0
BBX 6 1 0 -1
BITMAP
6000
ENDCHAR
STARTCHAR -
ENCODING -1 45
SWIDTH 0 0
DWIDTH 5 0
BBX 6 1 0 -1
BITMAP
6800
ENDCHAR
STARTCHAR .
ENCODING -1 46
SWIDTH 0 0
DWIDTH 5 0
BBX 6 1 0 -1
BITMAP
7000
ENDCHAR
STARTCHAR /
ENCODING -1 47
SWIDTH 0 0
DWIDTH 5 0
BBX 6 1 0 -1
BITMAP
7800
ENDCHAR
STARTCHAR 0
ENCODING -1 48
SWIDTH 0 0
DWIDTH 5 0
BBX 6 1 0 -1
BITMAP
8000
ENDCHAR
STARTCHAR 1
ENCODING -1 49
SWIDTH 0 0
DWIDTH 5 0
BBX 6 1 0 -1
BITMAP
8800
ENDCHAR
STARTCHAR 2
ENCODING -1 50
SWIDTH 0 0
DWIDTH 5 0
BBX 6 1 0 -1
BITMAP
9000
ENDCHAR
STARTCHAR 3
ENCODING -1 51
SWIDTH 0 0
DWIDTH 5 0
BBX 6 1 0 -1
BITMAP
9800
ENDCHAR
STARTCHAR 4
ENCODING -1 52
SWIDTH 0 0
DWIDTH 5 0
BBX 6 1 0 -1
BITMAP
a000
ENDCHAR
STARTCHAR 5
ENCODING -1 53
SWIDTH 0 0
DWIDTH 5 0
BBX 6 1 0 -1
BITMAP
a800
ENDCHAR
STARTCHAR 6
ENCODING -1 54
SWIDTH 0 0
DWIDTH 5 0
BBX 6 1 0 -1
BITMAP
b000
ENDCHAR
STARTCHAR 7
ENCODING -1 55
SWIDTH 0 0
DWIDTH 5 0
BBX 6 1 0 -1
BITMAP
b800
ENDCHAR
STARTCHAR 8
ENCODING -1 56
SWIDTH 0 0
DWIDTH 5 0
BBX 6 1 0 -1
BITMAP
c000
ENDCHAR
STARTCHAR 9
ENCODING -1 57
SWIDTH 0 0
DWIDTH 5 0
BBX 6 1 0 -1
BITMAP
c800
ENDCHAR
STARTCHAR :
ENCODING -1 58
SWIDTH 0 0
DWIDTH 5 0
BBX 6 1 0 -1
BITMAP
d000
ENDCHAR
STARTCHAR ;
ENCODING -1 59
SWIDTH 0 0
DWIDTH 5 0
BBX 6 1 0 -1
BITMAP
d800
ENDCHAR
STARTCHAR <
ENCODING -1 60
SWIDTH 0 0
DWIDTH 5 0
BBX 6 1 0 -1
BITMAP
e000
ENDCHAR
STARTCHAR =
ENCODING -1 61
SWIDTH 0 0
DWIDTH 5 0
BBX 6 1 0 -1
BITMAP
e800
ENDCHAR
STARTCHAR >
ENCODING -1 62
SWIDTH 0 0
DWIDTH 5 0
BBX 6 1 0 -1
BITMAP
f000
ENDCHAR
STARTCHAR ?
ENCODING -1 63
SWIDTH 0 0
DWIDTH 5 0
BBX 6 1 0 -1
BITMAP
f800
ENDCHAR
STARTCHAR @
ENCODING -1 64
SWIDTH 0 0
DWIDTH 6 0
BBX 6 1 0 -1
BITMAP
0000
ENDCHAR
STARTCHAR A
ENCODING -1 65
SWIDTH 0 0
DWIDTH 6 0
BBX 6 1 0 -1
BITMAP
0400
ENDCHAR
STARTCHAR B
ENCODING -1 66
SWIDTH 0 0
DWIDTH 6 0
BBX 6 1 0 -1
BITMAP
0800
ENDCHAR
STARTCHAR C
ENCODING -1 67
SWIDTH 0 0
DWIDTH 6 0
BBX 6 1 0 -1
BITMAP
0c00
ENDCHAR
STARTCHAR D
ENCODING -1 68
SWIDTH 0 0
DWIDTH 6 0
BBX 6 1 0 -1
BITMAP
1000
ENDCHAR
STARTCHAR E
ENCODING -1 69
SWIDTH 0 0
DWIDTH 6 0
BBX 6 1 0 -1
BITMAP
1400
ENDCHAR
STARTCHAR F
ENCODING -1 70
SWIDTH 0 0
DWIDTH 6 0
BBX 6 1 0 -1
BITMAP
1800
ENDCHAR
STARTCHAR G
ENCODING -1 71
SWIDTH 0 0
DWIDTH 6 0
BBX 6 1 0 -1
BITMAP
1c00
ENDCHAR
STARTCHAR H
ENCODING -1 72
SWIDTH 0 0
DWIDTH 6 0
BBX 6 1 0 -1
BITMAP
2000
ENDCHAR
STARTCHAR I
ENCODING -1 73
SWIDTH 0 0
DWIDTH 6 0
BBX 6 1 0 -1
BITMAP
2400
ENDCHAR
STARTCHAR J
ENCODING -1 74
SWIDTH 0 0
DWIDTH 6 0
BBX 6 1 0 -1
BITMAP
2800
ENDCHAR
STARTCHAR K
ENCODING -1 75
SWIDTH 0 0
DWIDTH 6 0
BBX 6 1 0 -1
BITMAP
2c00
ENDCHAR
STARTCHAR L
ENCODING -1 76
SWIDTH 0 0
DWIDTH 6 0
BBX 6 1 0 -1
BITMAP
3000
ENDCHAR
STARTCHAR M
ENCODING -1 77
SWIDTH 0 0
DWIDTH 6 0
BBX 6 1 0 -1
BITMAP
3400
ENDCHAR
STARTCHAR N
ENCODING -1 78
SWIDTH 0 0
DWIDTH 6 0
BBX 6 1 0 -1
BITMAP
3800
ENDCHAR
STARTCHAR O
ENCODING -1 79
SWIDTH 0 0
DWIDTH 6 0
BBX 6 1 0 -1
BITMAP
3c00
ENDCHAR
STARTCHAR P
ENCODING -1 80
SWIDTH 0 0
DWIDTH 6 0
BBX 6 1 0 -1
BITMAP
4000
ENDCHAR
STARTCHAR Q
ENCODING -1 81
SWIDTH 0 0
DWIDTH 6 0
BBX 6 1 0 -1
BITMAP
4400
ENDCHAR
STARTCHAR R
ENCODING -1 82
SWIDTH 0 0
DWIDTH 6 0
BBX 6 1 0 -1
BITMAP
4800
ENDCHAR
STARTCHAR S
ENCODING -1 83
SWIDTH 0 0
DWIDTH 6 0
BBX 6 1 0 -1
BITMAP
4c00
ENDCHAR
STARTCHAR T
ENCODING -1 84
SWIDTH 0 0
DWIDTH 6 0
BBX 6 1 0 -1
BITMAP
5000
ENDCHAR
STARTCHAR U
ENCODING -1 85
SWIDTH 0 0
DWIDTH 6 0
BBX 6 1 0 -1
BITMAP
5400
ENDCHAR
STARTCHAR V
ENCODING -1 86
SWIDTH 0 0
DWIDTH 6 0
BBX 6 1 0 -1
BITMAP
5800
ENDCHAR
STARTCHAR W
ENCODING -1 87
SWIDTH 0 0
DWIDTH 6 0
BBX 6 1 0 -1
BITMAP
5c00
ENDCHAR
STARTCHAR X
ENCODING -1 88
SWIDTH 0 0
DWIDTH 6 0
BBX 6 1 0 -1
BITMAP
6000
ENDCHAR
STARTCHAR Y
ENCODING -1 89
SWIDTH 0 0
DWIDTH 6 0
BBX 6 1 0 -1
BITMAP
6400
ENDCHAR
STARTCHAR Z
ENCODING -1 90
SWIDTH 0 0
DWIDTH 6 0
BBX 6 1 0 -1
BITMAP
6800
ENDCHAR
STARTCHAR [
ENCODING -1 91
SWIDTH 0 0
DWIDTH 6 0
BBX 6 1 0 -1
BITMAP
6c00
ENDCHAR
STARTCHAR \
ENCODING -1 92
SWIDTH 0 0
DWIDTH 6 0
BBX 6 1 0 -1
BITMAP
7000
ENDCHAR
STARTCHAR ]
ENCODING -1 93
SWIDTH 0 0
DWIDTH 6 0
BBX 6 1 0 -1
BITMAP
7400
ENDCHAR
STARTCHAR ^
ENCODING -1 94
SWIDTH 0 0
DWIDTH 6 0
BBX 6 1 0 -1
BITMAP
7800
ENDCHAR
STARTCHAR _
ENCODING -1 95
SWIDTH 0 0
DWIDTH 6 0
BBX 6 1 0 -1
BITMAP
7c00
ENDCHAR
STARTCHAR `
ENCODING -1 96
SWIDTH 0 0
DWIDTH 6 0
BBX 6 1 0 -1
BITMAP
8000
ENDCHAR
STARTCHAR a
ENCODING -1 97
SWIDTH 0 0
DWIDTH 6 0
BBX 6 1 0 -1
BITMAP
8400
ENDCHAR
STARTCHAR b
ENCODING -1 98
SWIDTH 0 0
DWIDTH 6 0
BBX 6 1 0 -1
BITMAP
8800
ENDCHAR
STARTCHAR c
ENCODING -1 99
SWIDTH 0 0
DWIDTH 6 0
BBX 6 1 0 -1
BITMAP
8c00
ENDCHAR
STARTCHAR d
ENCODING -1 100
SWIDTH 0 0
DWIDTH 6 0
BBX 6 1 0 -1
BITMAP
9000
ENDCHAR
STARTCHAR e
ENCODING -1 101
SWIDTH 0 0
DWIDTH 6 0
BBX 6 1 0 -1
BITMAP
9400
ENDCHAR
STARTCHAR f
ENCODING -1 102
SWIDTH 0 0
DWIDTH 6 0
BBX 6 1 0 -1
BITMAP
9800
ENDCHAR
STARTCHAR g
ENCODING -1 103
SWIDTH 0 0
DWIDTH 6 0
BBX 6 1 0 -1
BITMAP
9c00
ENDCHAR
STARTCHAR h
ENCODING -1 104
SWIDTH 0 0
DWIDTH 6 0
BBX 6 1 0 -1
BITMAP
a000
ENDCHAR
STARTCHAR i
ENCODING -1 105
SWIDTH 0 0
DWIDTH 6 0
BBX 6 1 0 -1
BITMAP
a400
ENDCHAR
STARTCHAR j
ENCODING -1 106
SWIDTH 0 0
DWIDTH 6 0
BBX 6 1 0 -1
BITMAP
a800
ENDCHAR
STARTCHAR k
ENCODING -1 107
SWIDTH 0 0
DWIDTH 6 0
BBX 6 1 0 -1
BITMAP
ac00
ENDCHAR
STARTCHAR l
ENCODING -1 108
SWIDTH 0 0
DWIDTH 6 0
BBX 6 1 0 -1
BITMAP
b000
ENDCHAR
STARTCHAR m
ENCODING -1 109
SWIDTH 0 0
DWIDTH 6 0
BBX 6 1 0 -1
BITMAP
b400
ENDCHAR
STARTCHAR n
ENCODING -1 110
SWIDTH 0 0
DWIDTH 6 0
BBX 6 1 0 -1
BITMAP
b800
ENDCHAR
STARTCHAR o
ENCODING -1 111
SWIDTH 0 0
DWIDTH 6 0
BBX 6 1 0 -1
BITMAP
bc00
ENDCHAR
STARTCHAR p
ENCODING -1 112
SWIDTH 0 0
DWIDTH 6 0
BBX 6 1 0 -1
BITMAP
c000
ENDCHAR
STARTCHAR q
ENCODING -1 113
SWIDTH 0 0
DWIDTH 6 0
BBX 6 1 0 -1
BITMAP
c400
ENDCHAR
STARTCHAR r
ENCODING -1 114
SWIDTH 0 0
DWIDTH 6 0
BBX 6 1 0 -1
BITMAP
c800
ENDCHAR
STARTCHAR s
ENCODING -1 115
SWIDTH 0 0
DWIDTH 6 0
BBX 6 1 0 -1
BITMAP
cc00
ENDCHAR
STARTCHAR t
ENCODING -1 116
SWIDTH 0 0
DWIDTH 6 0
BBX 6 1 0 -1
BITMAP
d000
ENDCHAR
STARTCHAR u
ENCODING -1 117
SWIDTH 0 0
DWIDTH 6 0
BBX 6 1 0 -1
BITMAP
d400
ENDCHAR
STARTCHAR v
ENCODING -1 118
SWIDTH 0 0
DWIDTH 6 0
BBX 6 1 0 -1
BITMAP
d800
ENDCHAR
STARTCHAR w
ENCODING -1 119
SWIDTH 0 0
DWIDTH 6 0
BBX 6 1 0 -1
BITMAP
dc00
ENDCHAR
STARTCHAR x
ENCODING -1 120
SWIDTH 0 0
DWIDTH 6 0
BBX 6 1 0 -1
BITMAP
e000
ENDCHAR
STARTCHAR y
ENCODING -1 121
SWIDTH 0 0
DWIDTH 6 0
BBX 6 1 0 -1
BITMAP
e400
ENDCHAR
STARTCHAR z
ENCODING -1 122
SWIDTH 0 0
DWIDTH 6 0
BBX 6 1 0 -1
BITMAP
e800
ENDCHAR
STARTCHAR {
ENCODING -1 123
SWIDTH 0 0
DWIDTH 6 0
BBX 6 1 0 -1
BITMAP
ec00
ENDCHAR
STARTCHAR |
ENCODING -1 124
SWIDTH 0 0
DWIDTH 6 0
BBX 6 1 0 -1
BITMAP
f000
ENDCHAR
STARTCHAR }
ENCODING -1 125
SWIDTH 0 0
DWIDTH 6 0
BBX 6 1 0 -1
BITMAP
f400
ENDCHAR
STARTCHAR ~
ENCODING -1 126
SWIDTH 0 0
DWIDTH 6 0
BBX 6 1 0 -1
BITMAP
f800
ENDCHAR
STARTCHAR ch-127
ENCODING -1 127
SWIDTH 0 0
DWIDTH 6 0
BBX 6 1 0 -1
BITMAP
fc00
ENDCHAR
ENDFONT
